HIERARCHY
ROOT Hips
{
	OFFSET 0.000000 0.000000 0.000000
	CHANNELS 6 Xposition Yposition Zposition Zrotation Yrotation Xrotation 
	JOINT LHipJoint
	{
		OFFSET 0.000000 0.000000 0.000000
		CHANNELS 3 Zrotation Yrotation Xrotation
		JOINT LeftUpLeg
		{
			OFFSET 8.178360 -10.767780 5.035740
			CHANNELS 3 Zrotation Yrotation Xrotation
			JOINT LeftLeg
			{
				OFFSET 14.688660 -40.356780 0.000000
				CHANNELS 3 Zrotation Yrotation Xrotation
				JOINT LeftFoot
				{
					OFFSET 15.373200 -42.237540 0.000000
					CHANNELS 3 Zrotation Yrotation Xrotation
					JOINT LeftToeBase
					{
						OFFSET 0.945840 -2.598660 13.935300
						CHANNELS 3 Zrotation Yrotation Xrotation
						End Site
						{
							OFFSET 0.000000 0.000000 0.000000
						}
					}
				}
			}
		}
	}
	JOINT RHipJoint
	{
		OFFSET 0.000000 0.000000 0.000000
		CHANNELS 3 Zrotation Yrotation Xrotation
		JOINT RightUpLeg
		{
			OFFSET -7.833120 -10.767780 5.035740
			CHANNELS 3 Zrotation Yrotation Xrotation
			JOINT RightLeg
			{
				OFFSET -15.255180 -41.913300 0.000000
				CHANNELS 3 Zrotation Yrotation Xrotation
				JOINT RightFoot
				{
					OFFSET -15.409560 -42.337380 0.000000
					CHANNELS 3 Zrotation Yrotation Xrotation
					JOINT RightToeBase
					{
						OFFSET -0.988380 -2.715540 14.178900
						CHANNELS 3 Zrotation Yrotation Xrotation
						End Site
						{
							OFFSET 0.000000 0.000000 0.000000
						}
					}
				}
			}
		}
	}
	JOINT LowerBack
	{
		OFFSET 0.000000 0.000000 0.000000
		CHANNELS 3 Zrotation Yrotation Xrotation
		JOINT Spine
		{
			OFFSET 0.169620 12.213540 -1.160280
			CHANNELS 3 Zrotation Yrotation Xrotation
			JOINT Spine1
			{
				OFFSET 0.340320 12.293100 -0.256500
				CHANNELS 3 Zrotation Yrotation Xrotation
				JOINT Neck
				{
					OFFSET 0.000000 0.000000 0.000000
					CHANNELS 3 Zrotation Yrotation Xrotation
					JOINT Neck1
					{
						OFFSET -0.325020 10.477440 1.032120
						CHANNELS 3 Zrotation Yrotation Xrotation
						JOINT Head
						{
							OFFSET 0.624420 10.568160 -0.743820
							CHANNELS 3 Zrotation Yrotation Xrotation
							End Site
							{
								OFFSET 0.000000 0.000000 0.000000
							}
						}
					}
				}
				JOINT LeftShoulder
				{
					OFFSET 0.000000 0.000000 0.000000
					CHANNELS 3 Zrotation Yrotation Xrotation
					JOINT LeftArm
					{
						OFFSET 20.174460 7.205340 -1.867260
						CHANNELS 3 Zrotation Yrotation Xrotation
						JOINT LeftForeArm
						{
							OFFSET 29.898000 -0.000000 -0.000000
							CHANNELS 3 Zrotation Yrotation Xrotation
							JOINT LeftHand
							{
								OFFSET 20.901360 -0.000000 -0.000000
								CHANNELS 3 Zrotation Yrotation Xrotation
								JOINT LeftFingerBase
								{
									OFFSET 0.000000 0.000000 0.000000
									CHANNELS 3 Zrotation Yrotation Xrotation
									JOINT LeftHandIndex1
									{
										OFFSET 4.291560 -0.000000 -0.000000
										CHANNELS 3 Zrotation Yrotation Xrotation
										End Site
										{
											OFFSET 0.000000 0.000000 0.000000
										}
									}
								}
								JOINT LThumb
								{
									OFFSET 0.000000 0.000000 0.000000
									CHANNELS 3 Zrotation Yrotation Xrotation
									End Site
									{
										OFFSET 0.000000 0.000000 0.000000
									}
								}
							}
						}
					}
				}
				JOINT RightShoulder
				{
					OFFSET 0.000000 0.000000 0.000000
					CHANNELS 3 Zrotation Yrotation Xrotation
					JOINT RightArm
					{
						OFFSET -18.819600 8.244300 -2.427900
						CHANNELS 3 Zrotation Yrotation Xrotation
						JOINT RightForeArm
						{
							OFFSET -31.451400 -0.000000 -0.000000
							CHANNELS 3 Zrotation Yrotation Xrotation
							JOINT RightHand
							{
								OFFSET -20.665020 -0.000000 -0.000000
								CHANNELS 3 Zrotation Yrotation Xrotation
								JOINT RightFingerBase
								{
									OFFSET 0.000000 0.000000 0.000000
									CHANNELS 3 Zrotation Yrotation Xrotation
									JOINT RightHandIndex1
									{
										OFFSET -3.735180 -0.000000 -0.000000
										CHANNELS 3 Zrotation Yrotation Xrotation
										End Site
										{
											OFFSET 0.000000 0.000000 0.000000
										}
									}
								}
								JOINT RThumb
								{
									OFFSET 0.000000 0.000000 0.000000
									CHANNELS 3 Zrotation Yrotation Xrotation
									End Site
									{
										OFFSET 0.000000 0.000000 0.000000
									}
								}
							}
						}
					}
				}
			}
		}
	}
}
MOTION
Frames:	5
Frame Time:	0.0333333
56.710392 107.419830 58.661682 7.286093 -50.459680 -7.553968 -3.395773 2.058698 3.526375 -18.047102 -4.308315 -1.495053 -1.028603 3.430243 11.615063 1.119678 -15.012294 2.387435 0.518900 -4.616900 -12.819000 -0.308834 -1.199335 0.556137 16.315138 0.453755 -27.862840 -11.475124 -18.118470 64.682791 0.917357 -6.725460 1.138923 -0.237500 -3.136200 8.658100 -4.091649 0.678566 9.865863 1.050779 0.489288 1.760411 1.445202 0.180929 -4.472666 -9.443860 -5.062975 -14.430399 6.495003 -6.007287 17.910038 3.696100 -3.077800 12.568000 -6.407170 -0.930758 -1.460367 -80.754674 1.657059 23.245331 15.006939 -21.395213 -3.368499 -1.353840 -2.223768 6.486459 19.381856 22.628509 8.961100 -7.125000 0.000000 0.000000 -9.894100 56.126600 -2.719100 5.181242 1.416446 -1.126158 82.549182 -6.837512 18.196208 -18.841539 27.397720 -4.893214 0.402385 -0.089818 4.221169 -16.469707 7.895694 -2.400300 7.125000 0.000000 0.000000 7.227200 -21.710300 4.072900 
55.095330 107.165262 60.256332 7.961296 -51.323570 -7.929892 -3.395206 2.059230 3.586121 -18.647732 -3.321924 -1.008615 -0.913975 3.697897 12.416512 1.161728 -15.413260 1.215709 0.485300 -4.467000 -12.394300 -0.293450 -1.136006 0.514441 15.279098 1.111245 -29.624728 -9.696914 -17.302165 59.101200 0.504953 -4.323173 -0.088780 -0.111100 -2.148800 5.917100 -4.483610 0.343093 10.060357 1.074686 -0.016315 1.646552 1.821999 -0.068582 -4.700355 -9.403618 -4.899812 -14.728810 6.531169 -5.764019 17.891732 3.734100 -2.958800 12.612800 -6.350648 -0.973375 -1.468243 -80.265048 1.271503 23.976241 15.560323 -22.193285 -3.648204 -1.279101 -2.246126 5.119018 19.324220 22.473961 8.871000 -7.125000 0.000000 0.000000 -9.901900 55.945500 -2.677600 5.171710 1.431730 -1.132635 82.127932 -7.130139 17.704934 -18.436956 26.884935 -4.688203 0.400606 -0.104969 4.194363 -16.377907 8.177440 -2.475000 7.125000 0.000000 0.000000 7.287900 -21.407400 4.158100 
53.327166 107.113032 61.697280 8.605090 -52.504503 -8.001950 -3.416870 2.112972 3.693556 -18.999536 -2.358271 0.059389 -0.967247 3.395074 11.631319 1.180987 -14.254337 -0.152744 0.547100 -4.738700 -13.164900 -0.240618 -1.107365 0.443387 14.617978 1.870774 -30.571051 -7.420858 -15.909067 51.371893 0.962326 -6.646004 -2.638092 -0.531000 -4.669500 12.968400 -5.082682 0.184028 9.993633 1.164340 -0.306685 1.519955 2.423658 -0.213276 -4.851286 -9.330969 -4.755519 -14.912781 6.405604 -5.520907 17.576471 3.693100 -2.852200 12.496600 -6.270459 -1.024965 -1.476640 -79.607338 1.061816 25.180724 16.219608 -23.152887 -3.997117 -1.280713 -2.221317 4.077749 20.246173 22.030723 9.155100 -7.125000 0.000000 0.000000 -8.674800 55.645300 -2.278600 5.176198 1.418630 -1.143575 81.911370 -7.188613 16.185810 -17.953782 26.276548 -4.451308 0.375427 -0.138650 5.202412 -15.762271 8.789033 -2.559300 7.125000 0.000000 0.000000 7.733100 -20.777900 4.527700 
51.424506 107.042184 63.013350 8.459859 -52.996955 -7.347641 -3.393390 2.237182 3.826249 -18.908378 -2.191491 1.970010 -1.123254 2.602038 9.538991 1.077657 -13.496564 0.482660 0.367800 -3.895800 -10.783800 -0.151753 -1.112810 0.355047 14.589586 1.882337 -30.980081 -5.066645 -13.948570 42.534110 2.017386 -11.515077 -3.846268 -0.978700 -6.297600 17.650300 -5.073373 -0.278691 9.634833 1.262260 -0.879820 1.536703 2.696957 -0.537162 -4.542586 -9.312111 -4.746556 -15.307922 6.505802 -5.444330 17.184375 3.732000 -2.787900 12.412900 -6.243635 -1.089341 -1.451304 -78.970416 0.007839 25.694134 16.489564 -23.525995 -4.140865 -1.233131 -2.282249 3.519394 19.912113 22.741620 9.245400 -7.125000 0.000000 0.000000 -9.386800 56.344400 -2.627500 5.181045 1.431896 -1.142604 81.954592 -7.055312 15.159324 -17.633077 25.874821 -4.296010 0.373352 -0.163913 5.588188 -15.769891 9.345178 -2.725900 7.125000 0.000000 0.000000 7.716000 -20.182000 4.621800 
49.399974 107.092614 64.311408 8.774515 -53.352452 -7.063881 -3.233494 2.533554 4.040425 -19.242493 -1.882762 6.441056 -1.437811 0.090707 2.918658 0.768570 -11.668757 2.808985 0.414000 -4.130400 -11.443700 -0.115293 -1.173773 0.250031 14.284291 1.542038 -31.166548 -3.074832 -11.666189 33.784980 2.732708 -14.726360 -1.113179 -1.616900 -8.017800 22.768100 -5.148017 -0.622691 9.295627 1.292205 -1.302721 1.552342 2.810270 -0.797747 -4.288565 -9.460851 -4.993119 -15.963237 6.581578 -5.655580 16.949104 3.752500 -2.862500 12.496300 -6.251424 -1.158711 -1.422785 -78.578507 -1.153790 25.441939 16.512795 -23.529510 -4.148388 -1.218696 -2.234281 4.080188 19.485019 22.388017 8.898300 -7.125000 0.000000 0.000000 -9.697700 55.853300 -2.599900 5.175755 1.447031 -1.150183 82.103844 -7.150392 14.106520 -17.468878 25.669374 -4.216168 0.374250 -0.167496 5.008127 -15.662989 9.567665 -2.772000 7.125000 0.000000 0.000000 7.788500 -19.951700 4.706600 
